<?xml version="1.0" encoding="UTF-8" standalone="no"?>
<svg
   width="100"
   height="100"
   viewBox="0 0 100 100"
   version="1.1"
   id="svg18"
   sodipodi:docname="icon.svg"
   inkscape:version="0.92.2 (5c3e80d, 2017-08-06)"
   xml:space="preserve"
   inkscape:export-filename="icon_dell.svg"
   inkscape:export-xdpi="96"
   inkscape:export-ydpi="96"
   xmlns:inkscape="http://www.inkscape.org/namespaces/inkscape"
   xmlns:sodipodi="http://sodipodi.sourceforge.net/DTD/sodipodi-0.dtd"
   xmlns:xlink="http://www.w3.org/1999/xlink"
   xmlns="http://www.w3.org/2000/svg"
   xmlns:svg="http://www.w3.org/2000/svg"
   xmlns:rdf="http://www.w3.org/1999/02/22-rdf-syntax-ns#"
   xmlns:cc="http://creativecommons.org/ns#"
   xmlns:dc="http://purl.org/dc/elements/1.1/"><metadata
     id="metadata22"><rdf:RDF><cc:Work
         rdf:about=""><dc:format>image/svg+xml</dc:format><dc:type
           rdf:resource="http://purl.org/dc/dcmitype/StillImage" /><dc:title>eclispe-che</dc:title></cc:Work></rdf:RDF></metadata><sodipodi:namedview
     pagecolor="#ffffff"
     bordercolor="#666666"
     borderopacity="1"
     objecttolerance="10"
     gridtolerance="10"
     guidetolerance="10"
     inkscape:pageopacity="0"
     inkscape:pageshadow="2"
     inkscape:window-width="1035"
     inkscape:window-height="757"
     id="namedview20"
     showgrid="false"
     inkscape:pagecheckerboard="true"
     inkscape:zoom="4.72"
     inkscape:cx="45.148181"
     inkscape:cy="48.99602"
     inkscape:window-x="3578"
     inkscape:window-y="123"
     inkscape:window-maximized="0"
     inkscape:current-layer="layer1"
     inkscape:showpageshadow="2"
     inkscape:deskcolor="#d1d1d1" /><!-- Generator: Sketch 45.2 (43514) - http://www.bohemiancoding.com/sketch --><title
     id="title2">eclispe-che</title><desc
     id="desc4">Created with Sketch.</desc><defs
     id="defs7"><path
       d="M 50.000441,0 C 22.387125,0 0,22.384873 0,49.999559 0,77.613363 22.387125,100 50.000441,100 77.613758,100 100,77.613363 100,49.999559 100,22.384873 77.612875,0 50.000441,0 Z"
       id="path-1" /></defs><g
     inkscape:groupmode="layer"
     id="layer1"
     inkscape:label="BACKGROUND"
     style="display:none"><g
       style="fill:#ffffff;fill-opacity:1;fill-rule:evenodd;stroke:none;stroke-width:1;stroke-opacity:1"
       id="Page-1"><g
         id="eclispe-che"
         style="fill:#ffffff;fill-opacity:1;stroke:none;stroke-opacity:1"><g
           id="path3023-path"
           style="fill:#ffffff;fill-opacity:1;stroke:none;stroke-opacity:1"><use
             xlink:href="#path-1"
             id="use9"
             style="fill:#ffffff;fill-opacity:1;fill-rule:evenodd;stroke:none;stroke-opacity:1"
             x="0"
             y="0"
             width="100%"
             height="100%" /><path
             d="M 50.000441,0.5 C 22.662621,0.5 0.5,22.661661 0.5,49.999559 0.5,77.337051 22.663098,99.5 50.000441,99.5 77.337613,99.5 99.5,77.337222 99.5,49.999559 99.5,22.661796 77.337514,0.5 50.000441,0.5 Z"
             id="path11"
             style="fill:#ffffff;fill-opacity:1;stroke:none;stroke-width:1;stroke-opacity:1"
             inkscape:connector-curvature="0" /></g></g></g></g><g
     inkscape:groupmode="layer"
     id="layer2"
     inkscape:label="PLACE LOGO HERE"
     style="display:inline"><path
       d="M 46.465376,37.62548 34.115923,47.146046 C 32.84949,42.385071 28.731164,38.893228 23.664048,38.893228 H 14.79777 v 21.897715 h 8.866278 c 5.066839,0 9.499634,-3.492397 10.449666,-8.252678 l 12.351387,9.520426 12.351386,-9.520426 v 8.252678 H 72.748638 V 56.347044 H 63.566787 V 38.893366 h -5.068358 v 8.249911 l -11.717479,9.523195 -2.534249,-2.222711 5.702404,-4.444037 6.015215,-4.760283 -3.482348,-2.854508 -11.71748,9.201413 -2.532867,-2.222018 11.71748,-8.885169 -3.48497,-2.854509 z m -26.916892,5.709017 h 3.800682 c 0.791694,0 1.564053,0.180918 2.276542,0.508193 0.712518,0.327276 1.363661,0.802488 1.917881,1.397568 0.554193,0.595038 1.01044,1.307856 1.327118,2.11116 0.316676,0.803303 0.493618,1.697066 0.493618,2.649122 0,0.872725 -0.158532,1.725438 -0.45046,2.513906 -0.291943,0.788426 -0.717199,1.51244 -1.251588,2.127353 -0.534387,0.614871 -1.176982,1.12114 -1.904346,1.473272 -0.727363,0.352063 -1.53795,0.54873 -2.408709,0.54873 H 19.54854 V 43.334594 Z m 69.035131,13.013931 v 4.44293 H 74.650084 V 38.893643 h 5.066839 v 17.453678 h 8.866968 z M 49.947033,0.17584757 c -27.234536,0 -49.7182198,22.53158943 -49.7182198,49.82415343 0,27.292563 22.1674208,49.824152 49.7182198,49.824152 27.550799,0 49.71822,-22.214652 49.71822,-49.824152 0,-27.609501 -22.483683,-49.82415343 -49.71822,-49.82415343 z m 0,5.07915773 c 3.087502,-3.46e-5 6.099873,0.3105288 9.009218,0.9055532 2.909483,0.5950256 5.716905,1.4725803 8.388845,2.6031735 2.67194,1.1305654 5.210055,2.515704 7.585067,4.122258 2.375011,1.606551 4.587058,3.434544 6.605894,5.457682 2.018837,2.023137 3.842804,4.239897 5.446079,6.619968 1.603137,2.380072 2.985303,4.923595 4.113492,7.601229 1.128161,2.677633 2.003782,5.491175 2.597639,8.406719 0.593774,2.915681 0.903628,5.934332 0.903628,9.028413 0,3.094079 -0.309854,6.11287 -0.903628,9.028413 -0.593773,2.915681 -1.46945,5.729085 -2.597639,8.406718 -1.128162,2.677633 -2.510355,5.221156 -4.113492,7.601228 -1.603136,2.380072 -3.427242,4.596832 -5.446079,6.61997 -2.018836,2.023137 -4.230883,3.850992 -6.605894,5.457682 -2.375012,1.606552 -4.913127,2.991663 -7.585067,4.122256 -2.67194,1.130565 -5.479501,2.008052 -8.388845,2.603173 -2.909482,0.59504 -5.921716,0.905555 -9.009218,0.905555 -3.087501,0 -6.099873,-0.310515 -9.009217,-0.905555 -2.909898,-0.590969 -5.717595,-1.468427 -8.389951,-2.599159 -2.670972,-1.130731 -5.209364,-2.51612 -7.584789,-4.122949 C 22.587649,85.511889 20.376569,83.683619 18.357457,81.660205 16.338345,79.63679 14.513963,77.420999 12.911379,75.040512 11.308242,72.660026 9.9260756,70.116225 8.7978871,67.439561 7.6696975,64.761513 6.7941044,61.947833 6.200248,59.031735 5.6065289,56.117022 5.2966194,53.09851 5.2966194,50.003876 c 0,-3.094633 0.3099095,-6.113147 0.9036286,-9.02786 0.5937179,-2.916097 1.4694495,-5.729777 2.5976391,-8.407825 1.1281885,-2.676664 2.5103549,-5.220464 4.1134919,-7.600952 1.602584,-2.380487 3.426966,-4.596278 5.446078,-6.619692 2.019112,-2.023414 4.230192,-3.851684 6.605619,-5.457682 2.375425,-1.606553 4.913817,-2.991665 7.584789,-4.122257 2.672356,-1.1305931 5.480053,-2.0080522 8.389951,-2.6031746 2.908515,-0.5949828 5.920612,-0.9055532 9.008665,-0.9055532 z"
       fill="#007db8"
       id="path1"
       style="stroke-width:1.38254" /></g></svg>
